<?xml version="1.0" encoding="utf-8"?>
<!-- Generator: Adobe Illustrator 16.0.0, SVG Export Plug-In . SVG Version: 6.00 Build 0)  -->
<!DOCTYPE svg PUBLIC "-//W3C//DTD SVG 1.1//EN" "http://www.w3.org/Graphics/SVG/1.1/DTD/svg11.dtd">
<svg version="1.1" id="Layer_1" xmlns="http://www.w3.org/2000/svg" xmlns:xlink="http://www.w3.org/1999/xlink" x="0px" y="0px"
	 width="256px" height="256px" viewBox="0 0 256 256" enable-background="new 0 0 256 256" xml:space="preserve">
<g>
	<g>
		<path fill="#010101" d="M7.118,127.442H5.062v-18.363c0.581,0,3.165-0.087,4.509-0.087c2.585,0,4.088,0.202,5.116,1.361
			c0.869,0.927,1.291,2.375,1.291,3.591c0,3.447-2.637,4.635-3.559,5.04c1.556,3.042,3.217,5.3,4.008,6.227
			c0.185,0.174,0.922,1.014,2.32,1.274l-0.264,0.898c-0.053,0.202-0.237,0.202-0.422,0.202c-2.531,0-3.718-0.463-7.753-8.081
			c-0.579,0.086-1.292,0.203-3.19,0.116V127.442z M7.118,118.086c0.422,0.058,1.028,0.087,1.767,0.087
			c2.083,0,4.826-0.319,4.826-3.968c0-3.621-2.531-3.708-4.272-3.708c-0.395,0-1.556,0.029-2.32,0.087V118.086z"/>
		<path fill="#010101" d="M23.278,121.504c0.132,3.302,1.767,4.605,3.586,4.605c1.134,0,2.241-0.405,3.217-1.1h0.211l0.29,0.869
			c0.053,0.145-0.132,0.29-0.237,0.376c-1.714,1.303-3.085,1.535-4.113,1.535c-3.27,0-5.036-2.607-5.036-6.256
			c0-4.316,2.373-6.633,5.142-6.633c2.531,0,4.193,1.911,4.193,5.561L23.278,121.504z M28.446,119.419
			c-0.158-2.144-1.106-3.186-2.373-3.186c-1.265,0-2.689,0.956-2.821,4.026L28.446,119.419z"/>
		<path fill="#010101" d="M41.909,115.645c0.901,0.283,1.352,0.739,1.352,1.368c0,0.685-0.491,2.106-1.474,4.262
			c-1.214,2.671-2.104,4.392-2.67,5.161c-0.566,0.77-1.279,1.236-2.141,1.399c-0.002-1.631-0.512-3.801-1.531-6.512
			c-0.853-2.258-1.797-3.746-2.833-4.463c0.497-0.711,1.048-1.066,1.654-1.066c0.42,0,0.78,0.222,1.084,0.667
			c0.594,0.861,1.086,1.815,1.477,2.862l0.789,2.123c0.271,0.729,0.484,1.451,0.646,2.166l0.347,1.528l0.289-0.605
			c0.148-0.389,0.386-0.958,0.715-1.708c0.881-2.022,1.467-3.489,1.757-4.397C41.658,117.521,41.839,116.592,41.909,115.645z"/>
		<path fill="#010101" d="M46.729,109.252c0-0.783,0.58-1.304,1.187-1.304c0.633,0,1.187,0.521,1.187,1.304
			c0,0.84-0.659,1.274-1.187,1.274C47.415,110.527,46.729,110.092,46.729,109.252z M48.892,115.219v12.223h-1.926v-12.223H48.892z"
			/>
		<path fill="#010101" d="M61.459,115.645c0.901,0.283,1.352,0.739,1.352,1.368c0,0.685-0.491,2.106-1.474,4.262
			c-1.214,2.671-2.104,4.392-2.671,5.161c-0.565,0.77-1.278,1.236-2.14,1.399c-0.002-1.631-0.512-3.801-1.531-6.512
			c-0.853-2.258-1.797-3.746-2.833-4.463c0.496-0.711,1.048-1.066,1.654-1.066c0.42,0,0.78,0.222,1.084,0.667
			c0.594,0.861,1.086,1.815,1.477,2.862l0.79,2.123c0.27,0.729,0.483,1.451,0.645,2.166l0.346,1.528l0.29-0.605
			c0.148-0.389,0.386-0.958,0.715-1.708c0.881-2.022,1.467-3.489,1.757-4.397C61.209,117.521,61.389,116.592,61.459,115.645z"/>
		<path fill="#010101" d="M67.729,121.504c0.132,3.302,1.767,4.605,3.586,4.605c1.134,0,2.241-0.405,3.217-1.1h0.212l0.289,0.869
			c0.053,0.145-0.132,0.29-0.237,0.376c-1.714,1.303-3.085,1.535-4.113,1.535c-3.27,0-5.036-2.607-5.036-6.256
			c0-4.316,2.373-6.633,5.142-6.633c2.531,0,4.192,1.911,4.192,5.561L67.729,121.504z M72.897,119.419
			c-0.158-2.144-1.107-3.186-2.373-3.186s-2.689,0.956-2.821,4.026L72.897,119.419z"/>
		<path fill="#010101" d="M87.475,127.442h-2.109l7.752-18.363h1.635l6.46,18.363h-2.241l-1.978-5.938h-7.277L87.475,127.442z
			 M96.492,120.056l-2.927-8.603l-3.296,8.603H96.492z"/>
		<path fill="#010101" d="M115.078,107.398v20.043h-1.899v-1.246c-1.134,0.725-2.531,1.477-4.219,1.477
			c-3.084,0-4.956-2.317-4.956-5.793c0-4.981,3.771-6.98,6.96-6.98c1.029,0,1.609,0.174,2.215,0.319v-7.821H115.078z
			 M113.179,117.536c-0.975-0.782-2.083-0.927-2.953-0.927c-3.19,0-4.244,2.317-4.244,4.663c0,3.418,2.109,4.722,3.954,4.722
			c1.451,0,2.742-0.812,3.243-1.101V117.536z"/>
		<path fill="#010101" d="M126.835,117.304c-0.687-0.493-1.451-0.956-2.638-0.956c-1.951,0-2.294,1.188-2.294,1.708
			c0,1.101,0.95,1.593,2.742,2.317c1.662,0.696,3.376,1.39,3.376,3.65c0,2.809-2.663,3.765-4.773,3.765
			c-1.16,0-2.399-0.289-2.953-0.521c-0.158-0.087-0.185-0.145-0.21-0.289l-0.264-1.651l0.474-0.261
			c0.738,0.55,1.741,1.217,3.322,1.217c0.369,0,2.505,0,2.505-1.912c0-1.303-1.107-1.737-2.398-2.23
			c-1.846-0.724-3.691-1.448-3.691-3.649c0-1.361,1.001-3.591,4.402-3.591c1.214,0,2.215,0.261,2.479,0.376
			c0.079,0.028,0.131,0.145,0.158,0.232l0.236,1.564L126.835,117.304z"/>
		<path fill="#010101" d="M133.635,121.504c0.132,3.302,1.767,4.605,3.587,4.605c1.133,0,2.24-0.405,3.216-1.1h0.211l0.29,0.869
			c0.054,0.145-0.132,0.29-0.237,0.376c-1.714,1.303-3.085,1.535-4.113,1.535c-3.27,0-5.036-2.607-5.036-6.256
			c0-4.316,2.373-6.633,5.142-6.633c2.531,0,4.192,1.911,4.192,5.561L133.635,121.504z M138.803,119.419
			c-0.158-2.144-1.107-3.186-2.373-3.186s-2.689,0.956-2.821,4.026L138.803,119.419z"/>
		<path fill="#010101" d="M146.975,127.442h-1.926v-12.223h1.926v3.36c1.238-2.202,2.083-3.679,3.771-3.679
			c0.764,0,1.449,0.376,1.607,0.579c0.079,0.087,0.079,0.232,0.079,0.348c0,0.145,0,0.29-0.079,0.463l-0.5,1.129h-0.344
			c-0.211-0.173-0.501-0.376-1.187-0.376c-1.133,0-1.634,0.521-3.348,3.591V127.442z"/>
		<path fill="#010101" d="M162.362,115.645c0.9,0.283,1.354,0.739,1.354,1.368c0,0.685-0.492,2.106-1.475,4.262
			c-1.215,2.671-2.105,4.391-2.671,5.161c-0.566,0.77-1.279,1.236-2.141,1.399c-0.002-1.631-0.512-3.801-1.53-6.512
			c-0.853-2.258-1.798-3.746-2.833-4.463c0.496-0.711,1.048-1.066,1.653-1.066c0.42,0,0.781,0.222,1.084,0.667
			c0.594,0.861,1.086,1.815,1.477,2.863l0.79,2.123c0.27,0.729,0.483,1.451,0.645,2.166l0.346,1.528l0.29-0.605
			c0.147-0.389,0.386-0.958,0.715-1.708c0.882-2.023,1.467-3.489,1.757-4.397C162.112,117.521,162.292,116.592,162.362,115.645z"/>
		<path fill="#010101" d="M168.633,121.504c0.132,3.302,1.767,4.605,3.585,4.605c1.135,0,2.242-0.405,3.218-1.1h0.211l0.29,0.869
			c0.054,0.145-0.132,0.29-0.237,0.376c-1.713,1.303-3.085,1.535-4.113,1.535c-3.271,0-5.036-2.607-5.036-6.256
			c0-4.316,2.373-6.633,5.141-6.633c2.532,0,4.194,1.911,4.194,5.561L168.633,121.504z M173.801,119.419
			c-0.158-2.144-1.107-3.186-2.373-3.186s-2.688,0.956-2.822,4.026L173.801,119.419z"/>
		<path fill="#010101" d="M181.973,127.442h-1.926v-12.223h1.926v3.36c1.239-2.202,2.083-3.679,3.771-3.679
			c0.764,0,1.45,0.376,1.608,0.579c0.079,0.087,0.079,0.232,0.079,0.348c0,0.145,0,0.29-0.079,0.463l-0.501,1.129h-0.344
			c-0.211-0.173-0.501-0.376-1.186-0.376c-1.134,0-1.635,0.521-3.349,3.591V127.442z"/>
		<path fill="#168AA8" d="M201.533,109.078l6.513,14.83l6.909-14.83h1.951l0.447,18.364h-2.083l-0.211-15.467l-7.014,15.236
			l-0.713,0.145l-6.643-15.235l-0.237,15.322h-1.898l0.922-18.364H201.533z"/>
		<path fill="#168AA8" d="M234.303,121.041c0,3.591-2.426,6.778-6.328,6.778c-3.453,0-5.643-2.897-5.643-6.314
			c0-3.65,2.373-6.604,6.248-6.604C232.457,114.9,234.303,118,234.303,121.041z M224.415,120.665c0,2.49,1.397,5.677,4.008,5.677
			c2.372,0,3.797-2.289,3.797-4.808c0-2.085-1.107-5.185-4.009-5.185C226.498,116.349,224.415,117.507,224.415,120.665z"/>
		<path fill="#168AA8" d="M249.356,107.398v20.043h-1.899v-1.246c-1.133,0.724-2.53,1.477-4.219,1.477
			c-3.085,0-4.958-2.317-4.958-5.793c0-4.981,3.771-6.98,6.962-6.98c1.028,0,1.608,0.174,2.215,0.319v-7.821H249.356z
			 M247.457,117.536c-0.976-0.782-2.083-0.927-2.953-0.927c-3.19,0-4.246,2.317-4.246,4.663c0,3.417,2.11,4.722,3.957,4.722
			c1.45,0,2.741-0.812,3.242-1.101V117.536z"/>
	</g>
	<g>
		<path fill="#0A4454" d="M6.516,144.639H5.358v-9.41c0.683,0,1.781-0.044,2.464-0.044c1.276,0,2.226,0.119,2.909,0.727
			c0.578,0.52,0.815,1.306,0.815,2.004c0,1.054-0.563,2.76-2.983,3.013c-0.43,0.044-1.128,0.06-2.048,0.03V144.639z M6.516,140.142
			c0.282,0.03,0.52,0.045,0.994,0.045c1.321,0,2.775-0.223,2.775-2.226c0-2.004-1.603-2.004-2.479-2.004
			c-0.267,0-0.89,0.03-1.291,0.045V140.142z"/>
		<path fill="#0A4454" d="M17.29,134.369v10.271h-1.084v-10.271H17.29z"/>
		<path fill="#0A4454" d="M28.376,144.639h-1.069v-0.95c-1.009,0.816-1.721,1.128-2.522,1.128c-0.55,0-1.306-0.134-1.707-1.024
			c-0.223-0.489-0.223-1.143-0.223-2.315v-3.102h1.068v3.102c0,1.127,0,1.499,0.148,1.84c0.252,0.534,0.861,0.579,0.995,0.579
			c0.712,0,1.603-0.504,2.24-1.009v-4.512h1.069V144.639z"/>
		<path fill="#0A4454" d="M39.61,139.133h-1.484c0.207,0.208,0.652,0.653,0.652,1.603c0,1.766-1.603,2.256-3.027,2.687
			c-0.549,0.178-0.608,0.193-0.608,0.356c0,0.356,0.445,0.43,1.974,0.638c0.979,0.134,1.573,0.208,2.019,0.504
			c0.653,0.431,0.653,0.98,0.653,1.158c0,1.573-2.182,2.523-4.186,2.523c-0.4,0-2.523-0.015-2.523-1.484
			c0-1.009,1.188-1.603,2.449-2.093c-0.52-0.089-1.365-0.222-1.365-0.995c0-0.504,0.179-0.578,1.365-1.009
			c-0.371-0.074-0.831-0.163-1.276-0.593c-0.4-0.386-0.668-0.994-0.668-1.677c0-1.366,1.039-2.553,2.583-2.553
			c0.371,0,0.697,0.059,1.039,0.192h2.404V139.133z M36.093,147.874c1.128,0,2.701-0.564,2.701-1.603
			c0-0.431-0.268-0.579-0.446-0.668c-0.37-0.179-1.706-0.371-2.166-0.416c-1.144,0.534-2.004,1.039-2.004,1.736
			C34.178,147.741,35.588,147.874,36.093,147.874z M36.508,142.546c0.341-0.104,1.202-0.341,1.202-1.588
			c0-0.787-0.4-2.122-1.617-2.122c-0.327,0-1.44,0.148-1.44,1.662C34.652,141.418,35.083,142.561,36.508,142.546z"/>
		<path fill="#0A4454" d="M44.105,135.318c0-0.401,0.326-0.668,0.668-0.668c0.355,0,0.668,0.267,0.668,0.668
			c0,0.43-0.371,0.653-0.668,0.653C44.491,135.971,44.105,135.749,44.105,135.318z M45.322,138.375v6.264h-1.083v-6.264H45.322z"/>
		<path fill="#0A4454" d="M52.016,138.375v0.965c0.876-0.683,1.633-1.128,2.642-1.128c0.489,0,1.128,0.134,1.514,0.712
			c0.283,0.43,0.283,0.964,0.283,1.959v3.755H55.37v-3.636c0-0.816,0-1.217-0.267-1.529c-0.194-0.238-0.49-0.341-0.787-0.341
			s-0.802,0.104-1.41,0.416c-0.431,0.222-0.697,0.43-0.891,0.593v4.498h-1.084v-6.264H52.016z"/>
		<path fill="#0A4454" d="M65.387,139.444c-0.386-0.252-0.816-0.489-1.484-0.489c-1.098,0-1.291,0.608-1.291,0.875
			c0,0.564,0.534,0.816,1.544,1.188c0.935,0.356,1.899,0.712,1.899,1.87c0,1.439-1.499,1.929-2.687,1.929
			c-0.653,0-1.351-0.148-1.662-0.267c-0.089-0.044-0.104-0.075-0.119-0.148l-0.148-0.847l0.268-0.133
			c0.415,0.282,0.979,0.623,1.87,0.623c0.208,0,1.41,0,1.41-0.979c0-0.667-0.624-0.89-1.351-1.143
			c-1.039-0.371-2.078-0.742-2.078-1.87c0-0.698,0.563-1.84,2.479-1.84c0.683,0,1.247,0.134,1.395,0.193
			c0.045,0.015,0.074,0.074,0.09,0.119l0.133,0.802L65.387,139.444z"/>
		<path fill="#0A4454" d="M78.757,144.639H77.6v-9.41h6.07v0.816h-4.913v3.295h4.155v0.816h-4.155V144.639z"/>
		<path fill="#0A4454" d="M94.311,141.359c0,1.84-1.366,3.473-3.563,3.473c-1.944,0-3.176-1.484-3.176-3.235
			c0-1.87,1.336-3.384,3.518-3.384S94.311,139.8,94.311,141.359z M88.744,141.166c0,1.277,0.787,2.909,2.256,2.909
			c1.336,0,2.138-1.172,2.138-2.464c0-1.068-0.624-2.656-2.257-2.656C89.916,138.955,88.744,139.548,88.744,141.166z"/>
		<path fill="#0A4454" d="M100.275,144.639h-1.084v-6.264h1.084v1.722c0.697-1.128,1.172-1.885,2.122-1.885
			c0.431,0,0.816,0.193,0.905,0.297c0.045,0.044,0.045,0.119,0.045,0.178c0,0.074,0,0.148-0.045,0.237l-0.281,0.579h-0.193
			c-0.119-0.089-0.282-0.193-0.668-0.193c-0.638,0-0.92,0.267-1.885,1.84V144.639z"/>
		<path fill="#0A4454" d="M115.694,144.639h-1.157v-9.41c0.325,0,1.78-0.044,2.538-0.044c1.454,0,2.301,0.104,2.879,0.697
			c0.489,0.475,0.728,1.217,0.728,1.841c0,1.766-1.484,2.375-2.004,2.582c0.876,1.559,1.811,2.716,2.256,3.191
			c0.104,0.089,0.52,0.52,1.306,0.653l-0.148,0.46c-0.029,0.104-0.133,0.104-0.237,0.104c-1.425,0-2.093-0.238-4.363-4.14
			c-0.327,0.044-0.728,0.103-1.796,0.059V144.639z M115.694,139.845c0.237,0.03,0.58,0.044,0.995,0.044
			c1.172,0,2.716-0.163,2.716-2.033c0-1.855-1.425-1.9-2.404-1.9c-0.223,0-0.875,0.015-1.307,0.045V139.845z"/>
		<path fill="#0A4454" d="M127.166,141.596c0.074,1.692,0.994,2.359,2.019,2.359c0.638,0,1.262-0.208,1.811-0.563h0.118l0.163,0.445
			c0.03,0.074-0.074,0.148-0.133,0.192c-0.965,0.668-1.737,0.787-2.315,0.787c-1.841,0-2.835-1.336-2.835-3.206
			c0-2.211,1.336-3.398,2.895-3.398c1.425,0,2.359,0.979,2.359,2.85L127.166,141.596z M130.075,140.528
			c-0.09-1.099-0.624-1.633-1.336-1.633c-0.713,0-1.514,0.49-1.589,2.063L130.075,140.528z"/>
		<path fill="#0A4454" d="M140.485,138.053c0.553,0.158,0.829,0.413,0.829,0.764c0,0.382-0.302,1.175-0.904,2.379
			c-0.745,1.491-1.291,2.452-1.638,2.882c-0.347,0.429-0.785,0.689-1.313,0.78c-0.001-0.91-0.313-2.122-0.939-3.635
			c-0.522-1.26-1.102-2.09-1.738-2.492c0.306-0.397,0.644-0.595,1.016-0.595c0.257,0,0.479,0.125,0.664,0.373
			c0.364,0.48,0.666,1.014,0.907,1.598l0.483,1.185c0.165,0.407,0.298,0.81,0.396,1.209l0.213,0.853l0.178-0.337
			c0.091-0.217,0.236-0.535,0.438-0.954c0.54-1.129,0.899-1.948,1.078-2.455C140.331,139.1,140.442,138.582,140.485,138.053z"/>
		<path fill="#0A4454" d="M145.282,135.318c0-0.401,0.326-0.668,0.668-0.668c0.356,0,0.668,0.267,0.668,0.668
			c0,0.43-0.371,0.653-0.668,0.653C145.668,135.971,145.282,135.749,145.282,135.318z M146.499,138.375v6.264h-1.083v-6.264H146.499
			z"/>
		<path fill="#0A4454" d="M156.406,138.053c0.552,0.158,0.829,0.413,0.829,0.764c0,0.382-0.302,1.175-0.904,2.379
			c-0.745,1.491-1.291,2.452-1.639,2.882c-0.347,0.429-0.784,0.689-1.313,0.78c0-0.911-0.313-2.122-0.938-3.635
			c-0.522-1.26-1.103-2.09-1.738-2.492c0.305-0.397,0.644-0.595,1.016-0.595c0.257,0,0.479,0.125,0.664,0.373
			c0.364,0.48,0.666,1.014,0.906,1.598l0.484,1.185c0.165,0.406,0.298,0.81,0.396,1.209l0.213,0.853l0.177-0.337
			c0.091-0.217,0.237-0.535,0.438-0.954c0.541-1.129,0.9-1.948,1.078-2.455S156.362,138.582,156.406,138.053z"/>
		<path fill="#0A4454" d="M162.019,141.596c0.074,1.692,0.994,2.359,2.019,2.359c0.639,0,1.263-0.208,1.812-0.563h0.118l0.164,0.445
			c0.029,0.074-0.075,0.148-0.134,0.192c-0.965,0.668-1.737,0.787-2.315,0.787c-1.841,0-2.835-1.336-2.835-3.206
			c0-2.211,1.336-3.398,2.895-3.398c1.424,0,2.359,0.979,2.359,2.85L162.019,141.596z M164.928,140.528
			c-0.089-1.099-0.623-1.633-1.335-1.633c-0.713,0-1.515,0.49-1.588,2.063L164.928,140.528z"/>
		<path fill="#0A4454" d="M177.883,144.639h-1.188l4.363-9.41h0.921l3.637,9.41h-1.261l-1.114-3.042h-4.097L177.883,144.639z
			 M182.959,140.854l-1.647-4.408l-1.854,4.408H182.959z"/>
		<path fill="#0A4454" d="M195.796,134.369v10.27h-1.068V144c-0.639,0.372-1.425,0.757-2.374,0.757
			c-1.738,0-2.791-1.188-2.791-2.968c0-2.553,2.122-3.577,3.919-3.577c0.578,0,0.904,0.089,1.246,0.163v-4.007H195.796z
			 M194.728,139.563c-0.55-0.4-1.173-0.475-1.661-0.475c-1.797,0-2.39,1.187-2.39,2.389c0,1.751,1.187,2.419,2.226,2.419
			c0.816,0,1.544-0.416,1.825-0.564V139.563z"/>
		<path fill="#0A4454" d="M204.789,139.444c-0.386-0.252-0.816-0.489-1.483-0.489c-1.098,0-1.291,0.608-1.291,0.875
			c0,0.564,0.533,0.816,1.543,1.188c0.935,0.356,1.9,0.712,1.9,1.871c0,1.439-1.5,1.929-2.687,1.929
			c-0.653,0-1.352-0.148-1.663-0.267c-0.089-0.044-0.104-0.075-0.118-0.148l-0.149-0.847l0.268-0.133
			c0.415,0.282,0.979,0.623,1.87,0.623c0.208,0,1.411,0,1.411-0.979c0-0.668-0.625-0.89-1.352-1.143
			c-1.039-0.371-2.078-0.742-2.078-1.87c0-0.698,0.563-1.84,2.479-1.84c0.683,0,1.247,0.133,1.396,0.193
			c0.045,0.015,0.075,0.074,0.09,0.119l0.134,0.801L204.789,139.444z"/>
		<path fill="#0A4454" d="M210.992,141.596c0.075,1.692,0.994,2.359,2.019,2.359c0.638,0,1.262-0.208,1.811-0.563h0.118l0.164,0.445
			c0.029,0.074-0.074,0.148-0.134,0.192c-0.965,0.668-1.736,0.787-2.315,0.787c-1.841,0-2.835-1.336-2.835-3.206
			c0-2.211,1.336-3.398,2.895-3.398c1.425,0,2.359,0.979,2.359,2.85L210.992,141.596z M213.901,140.528
			c-0.09-1.099-0.623-1.633-1.336-1.633s-1.514,0.49-1.588,2.063L213.901,140.528z"/>
		<path fill="#0A4454" d="M220.876,144.639h-1.084v-6.263h1.084v1.722c0.696-1.128,1.172-1.885,2.121-1.885
			c0.431,0,0.817,0.193,0.905,0.296c0.045,0.045,0.045,0.119,0.045,0.179c0,0.074,0,0.148-0.045,0.237l-0.281,0.579h-0.193
			c-0.119-0.089-0.282-0.193-0.668-0.193c-0.639,0-0.919,0.267-1.884,1.84V144.639z"/>
		<path fill="#0A4454" d="M232.37,138.053c0.552,0.158,0.828,0.413,0.828,0.764c0,0.382-0.301,1.175-0.903,2.379
			c-0.745,1.491-1.291,2.452-1.639,2.882c-0.346,0.429-0.784,0.689-1.313,0.78c0-0.911-0.313-2.122-0.938-3.635
			c-0.522-1.26-1.102-2.09-1.737-2.492c0.305-0.397,0.643-0.595,1.015-0.595c0.257,0,0.478,0.125,0.664,0.373
			c0.364,0.48,0.667,1.014,0.906,1.598l0.483,1.185c0.166,0.406,0.299,0.81,0.396,1.209l0.213,0.853l0.177-0.337
			c0.091-0.217,0.237-0.535,0.438-0.954c0.541-1.129,0.9-1.948,1.077-2.455C232.216,139.1,232.326,138.582,232.37,138.053z"/>
		<path fill="#0A4454" d="M237.983,141.596c0.073,1.692,0.994,2.359,2.019,2.359c0.638,0,1.262-0.208,1.811-0.563h0.118l0.164,0.445
			c0.029,0.074-0.074,0.148-0.134,0.192c-0.965,0.668-1.737,0.787-2.315,0.787c-1.841,0-2.835-1.336-2.835-3.206
			c0-2.211,1.336-3.398,2.895-3.398c1.425,0,2.359,0.979,2.359,2.85L237.983,141.596z M240.893,140.528
			c-0.09-1.099-0.623-1.633-1.336-1.633c-0.712,0-1.515,0.49-1.588,2.063L240.893,140.528z"/>
		<path fill="#0A4454" d="M247.867,144.639h-1.084v-6.263h1.084v1.722c0.696-1.128,1.172-1.885,2.122-1.885
			c0.431,0,0.816,0.193,0.904,0.296c0.045,0.045,0.045,0.119,0.045,0.179c0,0.074,0,0.148-0.045,0.237l-0.281,0.579h-0.192
			c-0.12-0.089-0.283-0.193-0.669-0.193c-0.639,0-0.919,0.267-1.884,1.84V144.639z"/>
	</g>
</g>
</svg>
